# xmcd
#
# Track frame offsets:
#	183
#	13220
#	27045
#	39050
#	52825
#	70820
#	90345
#	104750
#	117985
#	132125
#	146103
#	159753
#	172735
#	185593
#	198953
#	211478
#	224073
#	237093
#	249205
#	261805
#	274103
#	286453
#	297605
#	310098
#	322148
#
# Disc length: 4460 seconds
#
# Revision: 0
# Processed by: cddbd v1.5.1PL0 Copyright (c) Steve Scherf et al.
# Submitted via: audiograbber 1.83.01
#
DISCID=6e116a19
DTITLE=Pete Johnson - Roll 'Em Pete
DYEAR=1999
DGENRE=Blues
TTITLE0=Roll' Em Pete
TTITLE1=Boo Woo
TTITLE2=Home James
TTITLE3=Café Society Blues
TTITLE4=Holler Stomp
TTITLE5=Kansas City Farewell
TTITLE6=Blues On The Down Beat
TTITLE7=Kaycee On My Mind
TTITLE8=627 Stomp
TTITLE9=Barrelhouse Boogie
TTITLE10=Death Ray Boogie
TTITLE11=Just For You
TTITLE12=Pete's Mixture
TTITLE13=Basement Boogie
TTITLE14=Sixth Avenue Express
TTITLE15=I May Be Wonderful
TTITLE16=1280 Stomp
TTITLE17=Atomic Boogie
TTITLE18=Back Room Blues
TTITLE19=Pete's Lonesome Blues
TTITLE20=Mr. Drum Meets Mr. Piano
TTITLE21=Mutiny In The Doghouse
TTITLE22=Pete's Housewarming
TTITLE23=Minuet Boogie
TTITLE24=66 Stomp
EXTD=
EXTT0=
EXTT1=
EXTT2=
EXTT3=
EXTT4=
EXTT5=
EXTT6=
EXTT7=
EXTT8=
EXTT9=
EXTT10=
EXTT11=
EXTT12=
EXTT13=
EXTT14=
EXTT15=
EXTT16=
EXTT17=
EXTT18=
EXTT19=
EXTT20=
EXTT21=
EXTT22=
EXTT23=
EXTT24=
PLAYORDER=
